<?xml version="1.0" encoding="UTF-8"?>
<svg id="_图层_1" data-name="图层 1" xmlns="http://www.w3.org/2000/svg" viewBox="0 0 76 86">
  <defs>
    <style>
      .cls-1 {
        fill: #fff;
        stroke-width: 0px;
      }
    </style>
  </defs>
  <path class="cls-1" d="M37.99,2.38c19.65,0,35.63,15.98,35.63,35.63,0,11.17-5.1,21.49-13.97,28.29l-.06.05c-.79.6-16.69,12.52-21.59,16.19-4.9-3.67-20.81-15.59-21.61-16.21l-.02-.02c-8.89-6.8-13.99-17.12-13.99-28.3C2.38,18.36,18.35,2.38,37.99,2.38M37.99,0C17,0,0,17.02,0,38.01c0,12.31,5.85,23.25,14.93,30.19l.04.03c.95.73,23.04,17.27,23.04,17.27,0,0,22.09-16.55,23.04-17.27l.04-.03c9.06-6.94,14.92-17.88,14.92-30.19C76,17.02,58.99,0,37.99,0h0Z"/>
  <g>
    <path class="cls-1" d="M45.07,36.78h-15.05c-.81,0-1.47-.66-1.47-1.47s.66-1.47,1.47-1.47h15.05c.81,0,1.47.66,1.47,1.47s-.66,1.47-1.47,1.47h0ZM45.07,43.5h-15.05c-.81,0-1.47-.66-1.47-1.47s.66-1.47,1.47-1.47h15.05c.81,0,1.47.66,1.47,1.47s-.66,1.47-1.47,1.47h0Z"/>
    <path class="cls-1" d="M37.92,51.09c-.81,0-1.47-.66-1.47-1.47v-14.31c0-.81.66-1.47,1.47-1.47s1.47.66,1.47,1.47v14.31c0,.81-.66,1.47-1.47,1.47Z"/>
    <path class="cls-1" d="M37.38,35.92c-.39,0-.77-.15-1.04-.43l-7.25-7.26c-.58-.56-.6-1.5-.04-2.08.56-.58,1.5-.6,2.08-.04.01.01.02.02.04.04l7.26,7.26c.57.58.57,1.51,0,2.08-.28.28-.65.43-1.04.43Z"/>
    <path class="cls-1" d="M38.47,36.02c-.81,0-1.47-.66-1.47-1.47,0-.39.16-.77.43-1.04l7.26-7.26c.56-.58,1.5-.6,2.08-.04.58.56.6,1.5.04,2.08-.01.01-.02.02-.04.04l-7.26,7.26c-.28.28-.65.43-1.04.43Z"/>
    <path class="cls-1" d="M17.64,35.11c-.87,0-1.57-.7-1.57-1.57,0-.1,0-.2.03-.3,2.02-10.39,11.17-17.92,21.77-17.92,10.53,0,19.61,7.4,21.73,17.71.17.85-.37,1.68-1.22,1.85s-1.68-.37-1.85-1.22c-1.82-8.85-9.62-15.2-18.65-15.2-9.1,0-16.96,6.47-18.69,15.38-.14.74-.79,1.27-1.54,1.27Z"/>
    <path class="cls-1" d="M17.68,35.2c-.87,0-1.57-.71-1.56-1.58,0-.62.37-1.19.95-1.43l5.17-2.23c.8-.34,1.72.02,2.06.82s-.02,1.72-.82,2.06c0,0,0,0,0,0l-5.17,2.23c-.2.08-.41.13-.62.13ZM38.13,60.13c-10.53,0-19.61-7.4-21.73-17.71-.17-.85.37-1.68,1.22-1.85.85-.17,1.68.37,1.85,1.22h0c1.82,8.85,9.62,15.2,18.65,15.2,9.1,0,16.96-6.47,18.69-15.38.16-.85.98-1.42,1.83-1.26.85.16,1.42.98,1.26,1.83,0,0,0,.02,0,.03-2.02,10.39-11.18,17.92-21.77,17.92h0Z"/>
    <path class="cls-1" d="M53.14,45.61c-.87,0-1.57-.7-1.57-1.57,0-.63.37-1.2.95-1.44l5.17-2.23c.79-.35,1.72,0,2.07.79.35.79,0,1.72-.79,2.07-.01,0-.03.01-.04.02l-5.17,2.23c-.2.08-.41.13-.62.13h0Z"/>
  </g>
</svg>