<?xml version="1.0" encoding="UTF-8"?>
<svg id="_图层_1" data-name="图层 1" xmlns="http://www.w3.org/2000/svg" viewBox="0 0 76 86">
  <defs>
    <style>
      .cls-1 {
        fill: #c20a14;
        stroke-width: 0px;
      }
    </style>
  </defs>
  <path class="cls-1" d="M37.99,2.62c19.65,0,35.63,15.98,35.63,35.63,0,11.17-5.1,21.49-13.97,28.29l-.06.05c-.79.6-16.69,12.52-21.59,16.19-4.9-3.67-20.81-15.59-21.61-16.21l-.02-.02c-8.89-6.8-13.99-17.12-13.99-28.3C2.37,18.61,18.35,2.62,37.99,2.62M37.99.25C17,.25,0,17.27,0,38.26,0,50.56,5.85,61.5,14.93,68.44l.04.03c.95.73,23.04,17.27,23.04,17.27,0,0,22.09-16.55,23.04-17.27l.04-.03c9.06-6.94,14.92-17.88,14.92-30.19C76,17.27,58.99.25,37.99.25h0Z"/>
  <g>
    <path class="cls-1" d="M57.96,53.58h-2.35v-18.6c0-1.64-1.33-2.97-2.97-2.97h-3.98c-.67,0-1.21.54-1.21,1.21s.54,1.21,1.21,1.21h3.98c.31,0,.55.25.55.55v18.4h-8.2v-29.03c0-2.89-2.35-5.24-5.24-5.24h-14.11c-2.89,0-5.24,2.35-5.24,5.24v29.23h-2.35c-.67,0-1.21.54-1.21,1.21s.54,1.21,1.21,1.21h39.91c.67,0,1.21-.54,1.21-1.21,0-.67-.54-1.21-1.21-1.21h0ZM22.81,24.35c0-1.56,1.27-2.82,2.82-2.82h14.11c1.56,0,2.82,1.27,2.82,2.82v29.03h-19.76v-29.03ZM22.81,24.35"/>
    <path class="cls-1" d="M36.52,28.99h-7.66c-.67,0-1.21.54-1.21,1.21v.4c0,.89.73,1.61,1.61,1.61h7.26c.66,0,1.21-.54,1.21-1.21v-.81c0-.66-.54-1.21-1.21-1.21h0ZM36.52,37.25h-7.66c-.67,0-1.21.54-1.21,1.21v.4c0,.89.73,1.61,1.61,1.61h7.26c.66,0,1.21-.54,1.21-1.21v-.81c0-.66-.54-1.21-1.21-1.21h0ZM36.52,37.25"/>
  </g>
</svg>