<?xml version="1.0" encoding="UTF-8"?>
<svg id="_图层_1" data-name="图层 1" xmlns="http://www.w3.org/2000/svg" viewBox="0 0 76 86">
  <defs>
    <style>
      .cls-1 {
        fill: #c20a14;
        stroke-width: 0px;
      }
    </style>
  </defs>
  <g>
    <path class="cls-1" d="M43.06,53.36c-1.71,0-3.48-.26-5.06-.76-3.74-1.16-6.27-3.4-7.77-5.06l1.58-1.4c1.29,1.47,3.53,3.42,6.8,4.45,1.4.45,2.92.66,4.42.66,3.9,0,7.01-1.53,8.93-2.82l1.16,1.76c-2.13,1.45-5.64,3.16-10.06,3.16h0ZM43.06,53.36"/>
    <path class="cls-1" d="M38,57.31c-4.74,0-9.35-1.66-12.98-4.66l-.18-.16,1.32-1.63.18.16c3.27,2.71,7.4,4.19,11.64,4.19,9.72,0,18.25-8.53,18.25-18.25s-8.19-18.25-18.25-18.25-18.23,8.19-18.23,18.25c0,.79.05,1.61.16,2.4l-2.08.26c-.11-.87-.18-1.76-.18-2.66,0-11.22,9.14-20.36,20.36-20.36s20.36,9.14,20.36,20.36c0,5.37-2.21,10.48-6.22,14.41-3.85,3.79-9.01,5.95-14.14,5.95h0ZM38,57.31"/>
    <path class="cls-1" d="M37.16,27.5c-4.53,0-8.74-2.24-11.3-6l1.74-1.19c2.16,3.19,5.72,5.08,9.53,5.08,4.03,0,7.69-2.05,9.8-5.45l1.79,1.11c-2.48,4.03-6.79,6.45-11.56,6.45h0ZM19.05,34.23v-2.11s37.33.11,37.33.11v2.11s-37.33-.11-37.33-.11ZM19.05,34.23"/>
    <path class="cls-1" d="M50.3,46.46l-2.05-.47c.53-2.29.79-4.71.79-7.19,0-5.37-1.24-10.4-3.5-14.17-2.16-3.61-4.95-5.58-7.87-5.58-5.95,0-10.96,8.09-11.35,18.41l-2.11-.08c.21-5.45,1.66-10.51,4.06-14.3,2.5-3.95,5.85-6.14,9.4-6.14s7.14,2.34,9.69,6.61c2.45,4.08,3.79,9.51,3.79,15.25,0,2.66-.29,5.21-.84,7.66h0ZM50.3,46.46"/>
    <path class="cls-1" d="M36.1,18.7h2.11v20.33h-2.11v-20.33ZM20.35,58.73l-.82-16.99,17.86.68-6.29,6.03-1.45-1.53,2.71-2.61-10.59-.4.47,10.09,3.61-3.45,1.45,1.5-6.95,6.66ZM20.35,58.73"/>
  </g>
  <path class="cls-1" d="M37.99,2.62c19.65,0,35.63,15.98,35.63,35.63,0,11.17-5.1,21.49-13.97,28.29l-.06.05c-.79.6-16.69,12.52-21.59,16.19-4.9-3.67-20.81-15.59-21.61-16.21l-.02-.02c-8.89-6.8-13.99-17.12-13.99-28.3C2.37,18.61,18.35,2.62,37.99,2.62M37.99.25C17,.25,0,17.27,0,38.26,0,50.56,5.85,61.5,14.93,68.44l.04.03c.95.73,23.04,17.27,23.04,17.27,0,0,22.09-16.55,23.04-17.27l.04-.03c9.06-6.94,14.92-17.88,14.92-30.19C76,17.27,58.99.25,37.99.25h0Z"/>
</svg>