<?xml version="1.0" encoding="UTF-8"?>
<svg id="_图层_1" data-name="图层 1" xmlns="http://www.w3.org/2000/svg" viewBox="0 0 76 86">
  <defs>
    <style>
      .cls-1 {
        fill: #c20a14;
        stroke-width: 0px;
      }
    </style>
  </defs>
  <path class="cls-1" d="M37.99,2.62c19.65,0,35.63,15.98,35.63,35.63,0,11.17-5.1,21.49-13.97,28.29l-.06.05c-.79.6-16.69,12.52-21.59,16.19-4.9-3.67-20.81-15.59-21.61-16.21l-.02-.02c-8.89-6.8-13.99-17.12-13.99-28.3C2.37,18.61,18.35,2.62,37.99,2.62M37.99.25C17,.25,0,17.27,0,38.26,0,50.56,5.85,61.5,14.93,68.44l.04.03c.95.73,23.04,17.27,23.04,17.27,0,0,22.09-16.55,23.04-17.27l.04-.03c9.06-6.94,14.92-17.88,14.92-30.19C76,17.27,58.99.25,37.99.25h0Z"/>
  <g>
    <path class="cls-1" d="M30.52,17.49c.57-1.43,2.19-2.13,3.62-1.56.7.28,1.25.82,1.54,1.52l.02.04,4.52,10.82c.29.7-.04,1.49-.73,1.78-.02.01-.05.02-.07.03-.76.27-1.6-.11-1.91-.86l-4.39-10.75-11.79,29.6h23.59l2.59-1.03c.57,1.43-.13,3.05-1.56,3.62-.31.12-.64.19-.97.2h-.06s-23.59,0-23.59,0c-1.54,0-2.79-1.25-2.79-2.79,0-.33.06-.66.18-.98l.02-.05,11.79-29.6ZM30.52,17.49"/>
    <path class="cls-1" d="M33.06,42.64c.76,0,1.38.6,1.4,1.36v.03s.05,13.07.05,13.07c0,.77-.62,1.4-1.39,1.4-.76,0-1.38-.6-1.4-1.36v-.03s-.05-13.07-.05-13.07c0-.77.62-1.4,1.39-1.4h0ZM46.96,29.91c-5.8,0-10.5,4.7-10.5,10.5s4.7,10.5,10.5,10.5,10.5-4.7,10.5-10.5-4.7-10.5-10.5-10.5h0ZM46.96,32.69c4.26,0,7.71,3.45,7.71,7.71s-3.45,7.71-7.71,7.71-7.71-3.45-7.71-7.71,3.45-7.71,7.71-7.71h0ZM46.96,32.69"/>
    <path class="cls-1" d="M42.13,25.89c-.06-.04,0-.1.19-.16,3.7-1.22,7.75-1.07,11.39.5.14.06.28.12.41.19.66.32.94,1.12.62,1.78-.01.03-.03.06-.04.08-.38.66-1.21.92-1.9.6-.12-.06-.24-.11-.36-.16-2.89-1.2-6.08-1.33-9.02-.42-.14.04-.23.08-.27.1l-1.01-2.52ZM42.13,25.89"/>
    <path class="cls-1" d="M46.91,42.64c.76,0,1.38.6,1.4,1.36v.03s.05,13.07.05,13.07c0,.77-.62,1.4-1.39,1.4-.76,0-1.38-.6-1.4-1.36v-.03s-.05-13.07-.05-13.07c0-.77.62-1.4,1.39-1.4h0ZM46.91,42.64"/>
  </g>
</svg>