<?xml version="1.0" encoding="UTF-8"?>
<svg id="_图层_1" data-name="图层 1" xmlns="http://www.w3.org/2000/svg" viewBox="0 0 76 86">
  <defs>
    <style>
      .cls-1 {
        fill: #c20a14;
        stroke-width: 0px;
      }
    </style>
  </defs>
  <path class="cls-1" d="M37.99,2.62c19.65,0,35.63,15.98,35.63,35.63,0,11.17-5.1,21.49-13.97,28.29l-.06.05c-.79.6-16.69,12.52-21.59,16.19-4.9-3.67-20.81-15.59-21.61-16.21l-.02-.02c-8.89-6.8-13.99-17.12-13.99-28.3C2.37,18.61,18.35,2.62,37.99,2.62M37.99.25C17,.25,0,17.27,0,38.26,0,50.56,5.85,61.5,14.93,68.44l.04.03c.95.73,23.04,17.27,23.04,17.27,0,0,22.09-16.55,23.04-17.27l.04-.03c9.06-6.94,14.92-17.88,14.92-30.19C76,17.27,58.99.25,37.99.25h0Z"/>
  <g>
    <path class="cls-1" d="M19.08,40.71c.11.03.22.07.32.13.67.37,1.36.98,2.08,1.62.32.28.64.56.95.83,0,0,.09.07.21.26,3.6,5.79,9.46,7.01,13.55,7.43.74.07,1.48.14,2.3.2l1.15.1c1.5.13,2.82-.99,2.95-2.49.05-.6-.1-1.19-.42-1.69l-.46-.72c-.23-.35-.42-.64-.58-.93-.24-.43-.23-.58-.16-.7.05,0,.14.02.24.05.88.27,1.75.64,2.51,1.07,3.37,1.94,6.56,3.28,9.75,4.09-.01,1.07,0,2.13,0,3.2,0,.55,0,1.1,0,1.67l-4.24.02c-2.08.01-4.15.02-6.23.02-3.77,0-6.82-.03-9.62-.1-1.36-.04-3.05-.74-4.41-1.3-4.56-1.89-7.77-4.85-9.82-9.06-.48-.98-.57-2.03-.27-3.23.03-.17.1-.33.19-.47M19.02,37.97c-1.32,0-2.38.94-2.78,2.55-.43,1.73-.33,3.45.47,5.08,2.4,4.91,6.23,8.31,11.22,10.38,1.72.71,3.58,1.46,5.39,1.51,3.23.08,6.46.1,9.69.1,3.8,0,7.59-.03,11.39-.04,1.24,0,1.79-.55,1.8-1.79.01-2.14-.02-4.27.01-6.41.02-1.09-.5-1.67-1.53-1.91-3.41-.79-6.57-2.2-9.6-3.94-.97-.55-2-.99-3.07-1.32-.35-.11-.72-.17-1.09-.17-.82,0-1.57.32-2.13,1.09-.86,1.19-.72,2.45-.02,3.68.3.52.64,1.02,1.11,1.76-1.29-.11-2.35-.19-3.41-.3-4.68-.47-8.86-1.88-11.51-6.15-.21-.34-.47-.65-.77-.91-1.13-.95-2.19-2.04-3.47-2.74-.52-.3-1.11-.46-1.71-.48h0Z"/>
    <path class="cls-1" d="M43.84,25.19l-1.35-1.35c-.16-.16-.41-.16-.57,0,0,0,0,0,0,0l-5.03,5.03-5.03-5.03c-.16-.16-.42-.16-.58,0,0,0,0,0,0,0l-1.35,1.35c-.16.16-.16.42,0,.58,0,0,0,0,0,0l4.66,4.66h-4.11c-.23,0-.41.18-.41.41h0v1.91c0,.23.19.41.41.41h5.05v2.14h-5.05c-.23,0-.41.18-.41.41h0v1.91c0,.22.19.41.41.4h5.05v3.77c0,.22.19.41.41.41h1.91c.23,0,.41-.18.41-.41v-3.77h5.05c.22,0,.4-.18.41-.4v-1.91c0-.22-.18-.41-.41-.41h-5.05v-2.14h5.05c.22,0,.41-.18.41-.41v-1.91c0-.23-.18-.41-.41-.41h-4.11l4.65-4.66c.16-.16.15-.42,0-.58Z"/>
    <path class="cls-1" d="M19.36,35.17c.75.06,1.4-.49,1.48-1.23.74-8.3,7.71-14.66,16.05-14.62,8.88,0,16.11,7.23,16.11,16.12,0,2.04-.38,4.07-1.14,5.96-.28.7.06,1.49.76,1.77.7.28,1.49-.06,1.77-.76h0c.88-2.22,1.33-4.58,1.33-6.97,0-10.39-8.45-18.84-18.84-18.84-9.75-.05-17.9,7.38-18.76,17.09-.07.75.48,1.41,1.23,1.48h0Z"/>
  </g>
</svg>