<?xml version="1.0" encoding="UTF-8"?>
<svg id="_图层_1" data-name="图层 1" xmlns="http://www.w3.org/2000/svg" viewBox="0 0 50 50">
  <defs>
    <style>
      .cls-1 {
        fill: #c20a14;
        stroke-width: 0px;
      }
    </style>
  </defs>
  <path class="cls-1" d="M38.64,33.3v.02l-8.82-4.46c.39-1.76.08-3.65-.97-5.2l1.61-1.3c1.9,1.16,4.34.88,5.93-.68,1.87-1.88,1.87-4.95,0-6.84-1.88-1.88-4.91-1.88-6.81,0-1.64,1.66-1.83,4.21-.59,6.09l-1.51,1.22c-1.02-.8-2.26-1.29-3.55-1.41l-.88-7.5c.71-.34,1.35-.79,1.92-1.33,2.59-2.61,2.59-6.85,0-9.46C22.35-.15,18.13-.15,15.54,2.45c-2.59,2.61-2.59,6.85,0,9.46,1.07,1.07,2.47,1.75,3.98,1.92l1.54,7.28c-.91.34-1.74.86-2.43,1.55-.33.34-.62.7-.88,1.1l-8.7-4.39c.04-.73-.23-1.45-.74-1.98-1-1-2.62-1-3.63,0-1.01,1.01-1.02,2.64,0,3.66,0,0,0,0,0,0,.94.94,2.44.98,3.45.13l8.8,4.43c-.36,1.29-.33,2.65.1,3.92l-6.65,4.67c-2.64-1.8-6.18-1.45-8.43.82-2.6,2.61-2.6,6.83,0,9.44,2.55,2.6,6.73,2.63,9.32.08.03-.03.05-.05.08-.08,1.75-1.75,2.39-4.33,1.66-6.7l5.61-5.64c.98.97,2.23,1.62,3.59,1.86l2.19,7.07c-.54.23-1.03.56-1.45.98-1.71,1.71-1.71,4.48,0,6.19,1.69,1.71,4.46,1.71,6.17,0,1.7-1.7,1.7-4.48,0-6.19-.73-.73-1.69-1.17-2.72-1.25l-2.13-6.78c1.43-.2,2.76-.86,3.78-1.88.11-.11.21-.23.31-.35l8.36,5.54c-.22,2.01.49,4.01,1.92,5.45,2.6,2.61,6.8,2.61,9.42,0,2.59-2.61,2.59-6.83,0-9.46-2.62-2.61-6.83-2.61-9.42,0h0Z"/>
</svg>