<?xml version="1.0" encoding="UTF-8"?>
<svg id="_图层_1" data-name="图层 1" xmlns="http://www.w3.org/2000/svg" viewBox="0 0 50 50">
  <defs>
    <style>
      .cls-1 {
        fill: #c20a14;
        stroke-width: 0px;
      }
    </style>
  </defs>
  <path class="cls-1" d="M24.73,7.72c-8.97,0-16.18,7.41-16.18,16.57,0,4.68,1.75,8.97,5.07,12.09l.39.39h21.44l.39-.39c3.31-3.31,5.07-7.41,5.07-12.09,0-9.16-7.21-16.57-16.18-16.57ZM34.48,34.24H14.79c-2.53-2.53-3.9-6.04-3.9-9.94,0-7.8,6.24-14.04,13.84-14.04s13.84,6.24,13.84,14.04c0,3.7-1.56,7.21-4.09,9.94h0ZM15.37,37.43h18.71v2.34H15.37v-2.34ZM16.54,40.45h16.38v2.34h-16.38v-2.34ZM17.32,43.57l2.92,6.43h8.58l3.12-6.43h-14.62ZM27.46,47.47h-5.65l-.78-1.56h7.21l-.78,1.56ZM25.51,6.77V.97c0-.58-.39-.97-.97-.97s-.97.39-.97.97v5.8h1.95ZM1.23,26.22c-.58,0-.97.39-.97.97s.39.97.97.97h5.79c-.2-.58-.2-1.36-.2-1.95H1.23ZM3.09,13.15c-.58-.19-1.17,0-1.36.39-.39.58-.2,1.17.19,1.36l5.07,2.92c.19-.58.58-1.17.78-1.95l-4.68-2.73ZM12.24,3.52c-.2-.58-.97-.58-1.36-.39s-.58.97-.39,1.36l2.74,4.96c.19-.2.58-.2.78-.39.39-.2.58-.39.97-.58l-2.74-4.96ZM47.22,15.17c.39-.2.58-.97.39-1.36-.19-.39-.97-.58-1.36-.39l-5.14,3.06c.2.58.59,1.17.78,1.95l5.34-3.25h0ZM48.57,26.22h-5.98c0,.78-.19,1.36-.19,1.95h6.37c.58,0,.97-.39.97-.97,0-.98-.78-.97-1.17-.97h0ZM38.39,4.49c.19-.39.19-1.17-.39-1.36-.39-.2-.97-.2-1.17.39l-2.74,4.96c.59.39,1.17.58,1.76.97l2.55-4.96Z"/>
  <path class="cls-1" d="M14.82,21.41c-.17,0-.33-.03-.49-.1-.29-.13-.52-.37-.64-.67-.12-.3-.11-.63.02-.92,1.71-3.75,4.98-6.49,8.98-7.53l.17-.02c.08-.01.15-.02.22-.02.53,0,.99.34,1.15.85.19.63-.16,1.3-.78,1.5-3.33.8-6.08,3.06-7.52,6.19-.2.44-.63.73-1.11.73ZM13.84,25.04c-.7,0-1.26-.56-1.26-1.26,0-.7.57-1.26,1.26-1.26.7,0,1.26.57,1.26,1.26s-.57,1.26-1.26,1.26Z"/>
</svg>