<?xml version="1.0" encoding="UTF-8"?>
<svg id="_图层_1" data-name="图层 1" xmlns="http://www.w3.org/2000/svg" viewBox="0 0 50 50">
  <defs>
    <style>
      .cls-1 {
        fill: #c20a14;
        stroke-width: 0px;
      }
    </style>
  </defs>
  <path class="cls-1" d="M49.28,21.23H.72c-.96-.99-.96-2.58,0-3.56L23.27,2c.96-.99,2.51-.99,3.47,0l22.55,15.67c.96.99.96,2.58,0,3.57ZM7.51,26.25h7.5v22.49h-7.5c-1.38,0-2.5-1.12-2.5-2.5v-17.49c0-1.38,1.12-2.5,2.5-2.5h0ZM30,48.74h-9.99v-22.49h10v22.49h0ZM44.99,28.75v17.49c0,1.38-1.12,2.5-2.5,2.5h-7.5v-22.48h7.5c1.38,0,2.5,1.12,2.5,2.5h0Z"/>
</svg>